<svg width="500" height="500" viewBox="0 0 500 500" fill="none" xmlns="http://www.w3.org/2000/svg">
<path d="M360 30H140C79.2487 30 30 79.2487 30 140V360C30 420.751 79.2487 470 140 470H360C420.751 470 470 420.751 470 360V140C470 79.2487 420.751 30 360 30Z" fill="url(#paint0_linear_136_70)"/>
<path d="M173.6 80H116.4C96.2968 80 80 96.2968 80 116.4V173.6C80 193.703 96.2968 210 116.4 210H173.6C193.703 210 210 193.703 210 173.6V116.4C210 96.2968 193.703 80 173.6 80Z" fill="white"/>
<path d="M165.28 106H124.72C114.381 106 106 114.381 106 124.72V165.28C106 175.619 114.381 184 124.72 184H165.28C175.619 184 184 175.619 184 165.28V124.72C184 114.381 175.619 106 165.28 106Z" fill="url(#paint1_linear_136_70)"/>
<path d="M152.28 126.8H137.72C131.689 126.8 126.8 131.689 126.8 137.72V152.28C126.8 158.311 131.689 163.2 137.72 163.2H152.28C158.311 163.2 163.2 158.311 163.2 152.28V137.72C163.2 131.689 158.311 126.8 152.28 126.8Z" fill="white"/>
<path d="M383.6 290H326.4C306.297 290 290 306.297 290 326.4V383.6C290 403.703 306.297 420 326.4 420H383.6C403.703 420 420 403.703 420 383.6V326.4C420 306.297 403.703 290 383.6 290Z" fill="white"/>
<path d="M375.28 316H334.72C324.381 316 316 324.381 316 334.72V375.28C316 385.619 324.381 394 334.72 394H375.28C385.619 394 394 385.619 394 375.28V334.72C394 324.381 385.619 316 375.28 316Z" fill="url(#paint2_linear_136_70)"/>
<path d="M362.28 336.8H347.72C341.689 336.8 336.8 341.689 336.8 347.72V362.28C336.8 368.311 341.689 373.2 347.72 373.2H362.28C368.311 373.2 373.2 368.311 373.2 362.28V347.72C373.2 341.689 368.311 336.8 362.28 336.8Z" fill="white"/>
<path d="M332 80H308C298.059 80 290 88.0589 290 98V122C290 131.941 298.059 140 308 140H332C341.941 140 350 131.941 350 122V98C350 88.0589 341.941 80 332 80Z" fill="white"/>
<path d="M398 150H382C375.373 150 370 155.373 370 162V178C370 184.627 375.373 190 382 190H398C404.627 190 410 184.627 410 178V162C410 155.373 404.627 150 398 150Z" fill="white"/>
<path d="M122 290H98C88.0589 290 80 298.059 80 308V332C80 341.941 88.0589 350 98 350H122C131.941 350 140 341.941 140 332V308C140 298.059 131.941 290 122 290Z" fill="white"/>
<path d="M178 370H162C155.373 370 150 375.373 150 382V398C150 404.627 155.373 410 162 410H178C184.627 410 190 404.627 190 398V382C190 375.373 184.627 370 178 370Z" fill="white"/>
<path d="M314.5 180H300.5C294.701 180 290 184.701 290 190.5V204.5C290 210.299 294.701 215 300.5 215H314.5C320.299 215 325 210.299 325 204.5V190.5C325 184.701 320.299 180 314.5 180Z" fill="white"/>
<path d="M204.5 290H190.5C184.701 290 180 294.701 180 300.5V314.5C180 320.299 184.701 325 190.5 325H204.5C210.299 325 215 320.299 215 314.5V300.5C215 294.701 210.299 290 204.5 290Z" fill="white"/>
<defs>
<linearGradient id="paint0_linear_136_70" x1="40" y1="40" x2="460" y2="460" gradientUnits="userSpaceOnUse">
<stop stop-color="#172E7C"/>
<stop offset="0.52" stop-color="#004E8C"/>
<stop offset="1" stop-color="#018989"/>
</linearGradient>
<linearGradient id="paint1_linear_136_70" x1="40" y1="40" x2="460" y2="460" gradientUnits="userSpaceOnUse">
<stop stop-color="#172E7C"/>
<stop offset="0.52" stop-color="#004E8C"/>
<stop offset="1" stop-color="#018989"/>
</linearGradient>
<linearGradient id="paint2_linear_136_70" x1="39.9999" y1="39.9999" x2="460" y2="460" gradientUnits="userSpaceOnUse">
<stop stop-color="#172E7C"/>
<stop offset="0.52" stop-color="#004E8C"/>
<stop offset="1" stop-color="#018989"/>
</linearGradient>
</defs>
</svg>
