<svg width="500" height="500" viewBox="0 0 500 500" fill="none" xmlns="http://www.w3.org/2000/svg">
<path d="M308.52 88.96H191.48C159.16 88.96 132.96 115.16 132.96 147.48V264.52C132.96 296.84 159.16 323.04 191.48 323.04H308.52C340.84 323.04 367.04 296.84 367.04 264.52V147.48C367.04 115.16 340.84 88.96 308.52 88.96Z" fill="url(#paint0_linear_138_166)"/>
<path d="M209.355 115.56H178.925C168.23 115.56 159.56 124.23 159.56 134.925V165.355C159.56 176.05 168.23 184.72 178.925 184.72H209.355C220.05 184.72 228.72 176.05 228.72 165.355V134.925C228.72 124.23 220.05 115.56 209.355 115.56Z" fill="white"/>
<path d="M204.929 129.392H183.351C177.851 129.392 173.392 133.851 173.392 139.351V160.929C173.392 166.429 177.851 170.888 183.351 170.888H204.929C210.429 170.888 214.888 166.429 214.888 160.929V139.351C214.888 133.851 210.429 129.392 204.929 129.392Z" fill="url(#paint1_linear_138_166)"/>
<path d="M198.013 140.458H190.267C187.059 140.458 184.458 143.058 184.458 146.267V154.013C184.458 157.221 187.059 159.822 190.267 159.822H198.013C201.221 159.822 203.822 157.221 203.822 154.013V146.267C203.822 143.058 201.221 140.458 198.013 140.458Z" fill="white"/>
<path d="M321.075 227.28H290.645C279.95 227.28 271.28 235.95 271.28 246.645V277.075C271.28 287.77 279.95 296.44 290.645 296.44H321.075C331.77 296.44 340.44 287.77 340.44 277.075V246.645C340.44 235.95 331.77 227.28 321.075 227.28Z" fill="white"/>
<path d="M316.649 241.112H295.071C289.571 241.112 285.112 245.571 285.112 251.071V272.649C285.112 278.149 289.571 282.608 295.071 282.608H316.649C322.149 282.608 326.608 278.149 326.608 272.649V251.071C326.608 245.571 322.149 241.112 316.649 241.112Z" fill="url(#paint2_linear_138_166)"/>
<path d="M309.733 252.178H301.987C298.779 252.178 296.178 254.779 296.178 257.987V265.733C296.178 268.942 298.779 271.543 301.987 271.543H309.733C312.941 271.543 315.542 268.942 315.542 265.733V257.987C315.542 254.779 312.941 252.178 309.733 252.178Z" fill="white"/>
<path d="M293.624 115.56H280.856C275.567 115.56 271.28 119.847 271.28 125.136V137.904C271.28 143.193 275.567 147.48 280.856 147.48H293.624C298.913 147.48 303.2 143.193 303.2 137.904V125.136C303.2 119.847 298.913 115.56 293.624 115.56Z" fill="white"/>
<path d="M328.736 152.8H320.224C316.698 152.8 313.84 155.658 313.84 159.184V167.696C313.84 171.222 316.698 174.08 320.224 174.08H328.736C332.262 174.08 335.12 171.222 335.12 167.696V159.184C335.12 155.658 332.262 152.8 328.736 152.8Z" fill="white"/>
<path d="M181.904 227.28H169.136C163.847 227.28 159.56 231.567 159.56 236.856V249.624C159.56 254.912 163.847 259.2 169.136 259.2H181.904C187.193 259.2 191.48 254.912 191.48 249.624V236.856C191.48 231.567 187.193 227.28 181.904 227.28Z" fill="white"/>
<path d="M211.696 269.84H203.184C199.658 269.84 196.8 272.698 196.8 276.224V284.736C196.8 288.262 199.658 291.12 203.184 291.12H211.696C215.222 291.12 218.08 288.262 218.08 284.736V276.224C218.08 272.698 215.222 269.84 211.696 269.84Z" fill="white"/>
<path d="M284.314 168.76H276.866C273.781 168.76 271.28 171.261 271.28 174.346V181.794C271.28 184.879 273.781 187.38 276.866 187.38H284.314C287.399 187.38 289.9 184.879 289.9 181.794V174.346C289.9 171.261 287.399 168.76 284.314 168.76Z" fill="white"/>
<path d="M225.794 227.28H218.346C215.261 227.28 212.76 229.781 212.76 232.866V240.314C212.76 243.399 215.261 245.9 218.346 245.9H225.794C228.879 245.9 231.38 243.399 231.38 240.314V232.866C231.38 229.781 228.879 227.28 225.794 227.28Z" fill="white"/>
<path d="M181.9 359C187.202 359 191.5 362.626 191.5 367.1V377.9C191.5 381.569 188.608 384.666 184.643 385.662L187.933 391.849C187.98 391.938 188.02 392.031 188.056 392.123C188.112 392.204 188.166 392.289 188.214 392.379L191.688 398.913C192.349 400.156 191.877 401.7 190.634 402.361L187.632 403.957C186.389 404.618 184.845 404.146 184.184 402.903L180.709 396.369C180.661 396.28 180.621 396.188 180.585 396.096C180.529 396.014 180.475 395.929 180.428 395.84L175.545 386.656C175.432 386.444 175.355 386.223 175.307 386H169.1C168.728 386 168.361 385.979 168 385.944V393.45C168 393.552 167.992 393.652 167.98 393.75C167.992 393.848 168 393.948 168 394.05V401.45C168 402.858 166.858 404 165.45 404H162.05C160.642 404 159.5 402.858 159.5 401.45V394.05C159.5 393.948 159.507 393.848 159.519 393.75C159.507 393.652 159.5 393.552 159.5 393.45V378.05C159.5 378.031 159.502 378.011 159.502 377.992C159.502 377.962 159.5 377.931 159.5 377.9V367.1C159.5 362.626 163.798 359 169.1 359H181.9ZM172.5 366C170.015 366 168 368.015 168 370.5V376.5C168 378.985 170.015 381 172.5 381H178.5C180.985 381 183 378.985 183 376.5V370.5C183 368.015 180.985 366 178.5 366H172.5Z" fill="url(#paint3_linear_138_166)"/>
<path d="M228.34 404.792C225.951 404.792 223.412 404.472 220.724 403.832C218.036 403.192 215.497 402.317 213.108 401.208V393.016C218.655 396.003 223.604 397.496 227.956 397.496C230.132 397.496 231.881 397.027 233.204 396.088C234.569 395.149 235.252 393.827 235.252 392.12C235.252 390.925 234.868 389.923 234.1 389.112C233.375 388.259 232.457 387.576 231.348 387.064C230.239 386.509 228.66 385.848 226.612 385.08C223.839 384.056 221.577 383.075 219.828 382.136C218.079 381.197 216.585 379.875 215.348 378.168C214.111 376.419 213.492 374.179 213.492 371.448C213.492 367.437 214.879 364.323 217.652 362.104C220.425 359.843 224.223 358.712 229.044 358.712C231.305 358.712 233.524 358.968 235.7 359.48C237.876 359.949 239.881 360.653 241.716 361.592V369.592C237.407 367.203 233.247 366.008 229.236 366.008C227.017 366.008 225.268 366.413 223.988 367.224C222.751 367.992 222.132 369.101 222.132 370.552C222.132 372.003 222.772 373.155 224.052 374.008C225.375 374.819 227.401 375.715 230.132 376.696C232.991 377.763 235.337 378.787 237.172 379.768C239.007 380.749 240.585 382.179 241.908 384.056C243.273 385.891 243.999 388.28 244.084 391.224C244.084 395.448 242.655 398.776 239.796 401.208C236.937 403.597 233.119 404.792 228.34 404.792Z" fill="#5A6675"/>
<path d="M260.061 370.616H267.742V376.888H260.061V393.016C260.061 396.259 261.299 397.88 263.773 397.88C264.925 397.88 266.269 397.475 267.805 396.664V403.64C266.739 404.024 265.736 404.301 264.798 404.472C263.902 404.685 262.877 404.792 261.725 404.792C254.984 404.792 251.613 400.867 251.613 393.016V376.888H246.749V370.616H251.613V361.656L260.061 358.712V370.616Z" fill="#5A6675"/>
<path d="M295.479 404.024L294.262 399.672C292.086 401.592 290.167 402.936 288.503 403.704C286.881 404.429 285.025 404.792 282.935 404.792C280.929 404.792 279.094 404.323 277.43 403.384C275.809 402.445 274.529 401.165 273.59 399.544C272.694 397.88 272.247 396.024 272.247 393.976V370.616H280.695V389.176C280.695 391.864 281.121 393.891 281.975 395.256C282.828 396.621 284.065 397.304 285.687 397.304C287.052 397.304 288.332 397.005 289.527 396.408C290.721 395.811 292.001 394.851 293.367 393.528V370.616H301.814V396.6L303.223 404.024H295.479Z" fill="#5A6675"/>
<path d="M333.216 404.024L331.936 399.544C330.4 401.208 328.608 402.488 326.56 403.384C324.555 404.28 322.443 404.728 320.224 404.728C316.299 404.728 313.184 403.192 310.88 400.12C308.619 397.048 307.488 392.867 307.488 387.576C307.488 381.987 308.789 377.635 311.392 374.52C314.037 371.405 317.749 369.848 322.528 369.848C325.6 369.848 328.459 370.509 331.104 371.832V355.768H339.552V396.6L340.96 404.024H333.216ZM316.384 387.448C316.384 390.776 316.896 393.336 317.92 395.128C318.944 396.92 320.459 397.816 322.464 397.816C325.28 397.816 328.16 396.408 331.104 393.592V377.784C328.629 377.144 326.368 376.824 324.32 376.824C321.589 376.824 319.584 377.699 318.304 379.448C317.024 381.155 316.384 383.821 316.384 387.448Z" fill="#5A6675"/>
<path d="M349.962 365.624C348.511 365.624 347.273 365.133 346.249 364.152C345.225 363.171 344.714 361.891 344.714 360.312C344.714 358.733 345.225 357.453 346.249 356.472C347.273 355.491 348.511 355 349.962 355C351.412 355 352.649 355.491 353.673 356.472C354.697 357.453 355.21 358.733 355.21 360.312C355.21 361.891 354.697 363.171 353.673 364.152C352.649 365.133 351.412 365.624 349.962 365.624ZM354.186 370.616V404.024H345.737V370.68L354.186 370.616Z" fill="#5A6675"/>
<path d="M375.579 404.792C372.208 404.792 369.243 404.088 366.683 402.68C364.123 401.229 362.139 399.181 360.731 396.536C359.366 393.891 358.683 390.819 358.683 387.32C358.683 383.821 359.366 380.749 360.731 378.104C362.139 375.459 364.123 373.432 366.683 372.024C369.243 370.573 372.208 369.848 375.579 369.848C378.95 369.848 381.915 370.573 384.475 372.024C387.035 373.432 388.998 375.459 390.363 378.104C391.771 380.749 392.475 383.821 392.475 387.32C392.475 390.819 391.771 393.891 390.363 396.536C388.998 399.181 387.035 401.229 384.475 402.68C381.915 404.088 378.95 404.792 375.579 404.792ZM375.579 397.816C378.096 397.816 380.059 396.92 381.467 395.128C382.875 393.293 383.579 390.691 383.579 387.32C383.579 383.907 382.875 381.304 381.467 379.512C380.059 377.72 378.096 376.824 375.579 376.824C373.062 376.824 371.099 377.72 369.691 379.512C368.283 381.304 367.579 383.907 367.579 387.32C367.579 390.691 368.283 393.293 369.691 395.128C371.099 396.92 373.062 397.816 375.579 397.816Z" fill="#5A6675"/>
<path d="M139.2 358C146.822 358 153 364.178 153 371.8V390.2C153 396.898 148.227 402.481 141.897 403.735L143.163 406.449C143.209 406.547 143.245 406.647 143.277 406.747C143.471 406.944 143.637 407.174 143.76 407.438L145.163 410.449C145.745 411.696 145.205 413.178 143.958 413.76L140.948 415.163C139.701 415.745 138.219 415.205 137.638 413.958L136.233 410.948C136.188 410.85 136.151 410.75 136.119 410.649C135.926 410.453 135.761 410.222 135.638 409.958L134.233 406.948C134.188 406.85 134.151 406.75 134.119 406.649C133.926 406.453 133.761 406.222 133.638 405.958L132.725 404H120.8C113.178 404 107 397.822 107 390.2V371.8C107 364.178 113.178 358 120.8 358H139.2ZM124.4 367C119.761 367 116 370.761 116 375.4V386.6C116 391.239 119.761 395 124.4 395H135.6C140.239 395 144 391.239 144 386.6V375.4C144 370.761 140.239 367 135.6 367H124.4Z" fill="url(#paint4_linear_138_166)"/>
<defs>
<linearGradient id="paint0_linear_138_166" x1="138.28" y1="94.28" x2="361.72" y2="317.72" gradientUnits="userSpaceOnUse">
<stop stop-color="#172E7C"/>
<stop offset="0.52" stop-color="#004E8C"/>
<stop offset="1" stop-color="#018989"/>
</linearGradient>
<linearGradient id="paint1_linear_138_166" x1="138.28" y1="94.2801" x2="361.72" y2="317.72" gradientUnits="userSpaceOnUse">
<stop stop-color="#172E7C"/>
<stop offset="0.52" stop-color="#004E8C"/>
<stop offset="1" stop-color="#018989"/>
</linearGradient>
<linearGradient id="paint2_linear_138_166" x1="138.28" y1="94.2798" x2="361.72" y2="317.72" gradientUnits="userSpaceOnUse">
<stop stop-color="#172E7C"/>
<stop offset="0.52" stop-color="#004E8C"/>
<stop offset="1" stop-color="#018989"/>
</linearGradient>
<linearGradient id="paint3_linear_138_166" x1="108.5" y1="359" x2="182.171" y2="416.577" gradientUnits="userSpaceOnUse">
<stop stop-color="#172E7C"/>
<stop offset="0.52" stop-color="#004E8C"/>
<stop offset="1" stop-color="#018989"/>
</linearGradient>
<linearGradient id="paint4_linear_138_166" x1="107" y1="358" x2="195.499" y2="415" gradientUnits="userSpaceOnUse">
<stop stop-color="#172E7C"/>
<stop offset="0.52" stop-color="#004E8C"/>
<stop offset="1" stop-color="#018989"/>
</linearGradient>
</defs>
</svg>
