<svg width="405" height="110" viewBox="0 0 405 110" fill="none" xmlns="http://www.w3.org/2000/svg">
<path d="M239.34 74.792C236.951 74.792 234.412 74.472 231.724 73.832C229.036 73.192 226.497 72.3173 224.108 71.208V63.016C229.655 66.0027 234.604 67.496 238.956 67.496C241.132 67.496 242.881 67.0267 244.204 66.088C245.569 65.1493 246.252 63.8267 246.252 62.12C246.252 60.9253 245.868 59.9227 245.1 59.112C244.375 58.2587 243.457 57.576 242.348 57.064C241.239 56.5093 239.66 55.848 237.612 55.08C234.839 54.056 232.577 53.0747 230.828 52.136C229.079 51.1973 227.585 49.8747 226.348 48.168C225.111 46.4187 224.492 44.1787 224.492 41.448C224.492 37.4373 225.879 34.3227 228.652 32.104C231.425 29.8427 235.223 28.712 240.044 28.712C242.305 28.712 244.524 28.968 246.7 29.48C248.876 29.9493 250.881 30.6533 252.716 31.592V39.592C248.407 37.2027 244.247 36.008 240.236 36.008C238.017 36.008 236.268 36.4133 234.988 37.224C233.751 37.992 233.132 39.1013 233.132 40.552C233.132 42.0027 233.772 43.1547 235.052 44.008C236.375 44.8187 238.401 45.7147 241.132 46.696C243.991 47.7627 246.337 48.7867 248.172 49.768C250.007 50.7493 251.585 52.1787 252.908 54.056C254.273 55.8907 254.999 58.28 255.084 61.224C255.084 65.448 253.655 68.776 250.796 71.208C247.937 73.5973 244.119 74.792 239.34 74.792Z" fill="#5A6675"/>
<path d="M271.061 40.616H278.742V46.888H271.061V63.016C271.061 66.2587 272.299 67.88 274.773 67.88C275.925 67.88 277.269 67.4747 278.805 66.664V73.64C277.739 74.024 276.736 74.3013 275.798 74.472C274.902 74.6853 273.877 74.792 272.725 74.792C265.984 74.792 262.613 70.8667 262.613 63.016V46.888H257.749V40.616H262.613V31.656L271.061 28.712V40.616Z" fill="#5A6675"/>
<path d="M306.479 74.024L305.262 69.672C303.086 71.592 301.167 72.936 299.503 73.704C297.881 74.4293 296.025 74.792 293.935 74.792C291.929 74.792 290.094 74.3227 288.43 73.384C286.809 72.4453 285.529 71.1653 284.59 69.544C283.694 67.88 283.247 66.024 283.247 63.976V40.616H291.695V59.176C291.695 61.864 292.121 63.8907 292.975 65.256C293.828 66.6213 295.065 67.304 296.687 67.304C298.052 67.304 299.332 67.0053 300.527 66.408C301.721 65.8107 303.001 64.8507 304.367 63.528V40.616H312.814V66.6L314.223 74.024H306.479Z" fill="#5A6675"/>
<path d="M344.216 74.024L342.936 69.544C341.4 71.208 339.608 72.488 337.56 73.384C335.555 74.28 333.443 74.728 331.224 74.728C327.299 74.728 324.184 73.192 321.88 70.12C319.619 67.048 318.488 62.8667 318.488 57.576C318.488 51.9867 319.789 47.6347 322.392 44.52C325.037 41.4053 328.749 39.848 333.528 39.848C336.6 39.848 339.459 40.5093 342.104 41.832V25.768H350.552V66.6L351.96 74.024H344.216ZM327.384 57.448C327.384 60.776 327.896 63.336 328.92 65.128C329.944 66.92 331.459 67.816 333.464 67.816C336.28 67.816 339.16 66.408 342.104 63.592V47.784C339.629 47.144 337.368 46.824 335.32 46.824C332.589 46.824 330.584 47.6987 329.304 49.448C328.024 51.1547 327.384 53.8213 327.384 57.448Z" fill="#5A6675"/>
<path d="M360.962 35.624C359.511 35.624 358.273 35.1333 357.249 34.152C356.225 33.1707 355.714 31.8907 355.714 30.312C355.714 28.7333 356.225 27.4533 357.249 26.472C358.273 25.4907 359.511 25 360.962 25C362.412 25 363.649 25.4907 364.673 26.472C365.697 27.4533 366.21 28.7333 366.21 30.312C366.21 31.8907 365.697 33.1707 364.673 34.152C363.649 35.1333 362.412 35.624 360.962 35.624ZM365.186 40.616V74.024H356.737V40.68L365.186 40.616Z" fill="#5A6675"/>
<path d="M386.579 74.792C383.208 74.792 380.243 74.088 377.683 72.68C375.123 71.2293 373.139 69.1813 371.731 66.536C370.366 63.8907 369.683 60.8187 369.683 57.32C369.683 53.8213 370.366 50.7493 371.731 48.104C373.139 45.4587 375.123 43.432 377.683 42.024C380.243 40.5733 383.208 39.848 386.579 39.848C389.95 39.848 392.915 40.5733 395.475 42.024C398.035 43.432 399.998 45.4587 401.363 48.104C402.771 50.7493 403.475 53.8213 403.475 57.32C403.475 60.8187 402.771 63.8907 401.363 66.536C399.998 69.1813 398.035 71.2293 395.475 72.68C392.915 74.088 389.95 74.792 386.579 74.792ZM386.579 67.816C389.096 67.816 391.059 66.92 392.467 65.128C393.875 63.2933 394.579 60.6907 394.579 57.32C394.579 53.9067 393.875 51.304 392.467 49.512C391.059 47.72 389.096 46.824 386.579 46.824C384.062 46.824 382.099 47.72 380.691 49.512C379.283 51.304 378.579 53.9067 378.579 57.32C378.579 60.6907 379.283 63.2933 380.691 65.128C382.099 66.92 384.062 67.816 386.579 67.816Z" fill="#5A6675"/>
<path d="M150.2 28C157.822 28.0001 164 34.1784 164 41.7998V60.2002C164 66.8984 159.227 72.4809 152.897 73.7354L154.163 76.4482C154.209 76.5457 154.244 76.6463 154.276 76.7461C154.47 76.9429 154.636 77.1741 154.76 77.4385L156.163 80.4482C156.745 81.6952 156.205 83.1773 154.958 83.7588L151.947 85.1631C150.7 85.7441 149.218 85.2048 148.637 83.958L147.233 80.9473C147.188 80.8496 147.151 80.7494 147.119 80.6494C146.926 80.4528 146.76 80.222 146.637 79.958L145.233 76.9473C145.188 76.8496 145.151 76.7494 145.119 76.6494C144.926 76.4528 144.76 76.222 144.637 75.958L143.724 74H131.8C124.178 73.9999 118 67.8216 118 60.2002V41.7998C118 34.1784 124.178 28.0001 131.8 28H150.2ZM135.4 37C130.761 37 127 40.7612 127 45.4004V56.5996C127 61.2388 130.761 65 135.4 65H146.6C151.239 65 155 61.2388 155 56.5996V45.4004C155 40.7612 151.239 37 146.6 37H135.4Z" fill="url(#paint0_linear_143_688)"/>
<path d="M192.9 29C198.202 29.0002 202.5 32.6264 202.5 37.0996V47.9004C202.5 51.5695 199.608 54.6663 195.643 55.6621L198.933 61.8486C198.98 61.9382 199.02 62.0308 199.056 62.123C199.112 62.2045 199.166 62.2893 199.214 62.3789L202.688 68.9131C203.349 70.1563 202.877 71.7001 201.634 72.3613L198.632 73.957C197.389 74.618 195.845 74.1464 195.184 72.9033L191.709 66.3691C191.661 66.2796 191.621 66.1879 191.585 66.0957C191.529 66.0144 191.475 65.9293 191.428 65.8398L186.545 56.6562C186.432 56.4444 186.355 56.2234 186.307 56H180.1C179.728 56 179.361 55.9791 179 55.9443V63.4502C179 63.5517 178.992 63.6516 178.98 63.75C178.992 63.8484 179 63.9483 179 64.0498V71.4502C179 72.8584 177.858 73.9999 176.45 74H173.05C171.642 73.9999 170.5 72.8584 170.5 71.4502V64.0498C170.5 63.9483 170.507 63.8484 170.519 63.75C170.507 63.6516 170.5 63.5517 170.5 63.4502V48.0498C170.5 48.0305 170.502 48.0114 170.502 47.9922C170.502 47.9616 170.5 47.931 170.5 47.9004V37.0996C170.5 32.6264 174.798 29.0002 180.1 29H192.9ZM183.5 36C181.015 36 179 38.0147 179 40.5V46.5C179 48.9853 181.015 51 183.5 51H189.5C191.985 51 194 48.9853 194 46.5V40.5C194 38.0147 191.985 36 189.5 36H183.5Z" fill="url(#paint1_linear_143_688)"/>
<path d="M73.44 6.12012H28.56C16.1667 6.12012 6.12 16.1668 6.12 28.5601V73.4401C6.12 85.8334 16.1667 95.8801 28.56 95.8801H73.44C85.8333 95.8801 95.88 85.8334 95.88 73.4401V28.5601C95.88 16.1668 85.8333 6.12012 73.44 6.12012Z" fill="url(#paint2_linear_143_688)"/>
<path d="M35.4144 16.3198H23.7456C19.6446 16.3198 16.32 19.6444 16.32 23.7454V35.4142C16.32 39.5153 19.6446 42.8398 23.7456 42.8398H35.4144C39.5155 42.8398 42.84 39.5153 42.84 35.4142V23.7454C42.84 19.6444 39.5155 16.3198 35.4144 16.3198Z" fill="white"/>
<path d="M33.7171 21.624H25.4429C23.3338 21.624 21.624 23.3338 21.624 25.4429V33.7171C21.624 35.8263 23.3338 37.536 25.4429 37.536H33.7171C35.8263 37.536 37.536 35.8263 37.536 33.7171V25.4429C37.536 23.3338 35.8263 21.624 33.7171 21.624Z" fill="url(#paint3_linear_143_688)"/>
<path d="M31.0651 25.8672H28.0949C26.8646 25.8672 25.8672 26.8646 25.8672 28.0949V31.0651C25.8672 32.2954 26.8646 33.2928 28.0949 33.2928H31.0651C32.2954 33.2928 33.2928 32.2954 33.2928 31.0651V28.0949C33.2928 26.8646 32.2954 25.8672 31.0651 25.8672Z" fill="white"/>
<path d="M78.2544 59.1602H66.5856C62.4845 59.1602 59.16 62.4847 59.16 66.5858V78.2546C59.16 82.3556 62.4845 85.6802 66.5856 85.6802H78.2544C82.3554 85.6802 85.68 82.3556 85.68 78.2546V66.5858C85.68 62.4847 82.3554 59.1602 78.2544 59.1602Z" fill="white"/>
<path d="M76.5571 64.4639H68.2829C66.1738 64.4639 64.464 66.1736 64.464 68.2827V76.557C64.464 78.6661 66.1738 80.3759 68.2829 80.3759H76.5571C78.6662 80.3759 80.376 78.6661 80.376 76.557V68.2827C80.376 66.1736 78.6662 64.4639 76.5571 64.4639Z" fill="url(#paint4_linear_143_688)"/>
<path d="M73.9051 68.707H70.9349C69.7046 68.707 68.7072 69.7044 68.7072 70.9347V73.905C68.7072 75.1353 69.7046 76.1326 70.9349 76.1326H73.9051C75.1354 76.1326 76.1328 75.1353 76.1328 73.905V70.9347C76.1328 69.7044 75.1354 68.707 73.9051 68.707Z" fill="white"/>
<path d="M67.728 16.3198H62.832C60.804 16.3198 59.16 17.9638 59.16 19.9918V24.8878C59.16 26.9158 60.804 28.5598 62.832 28.5598H67.728C69.756 28.5598 71.4 26.9158 71.4 24.8878V19.9918C71.4 17.9638 69.756 16.3198 67.728 16.3198Z" fill="white"/>
<path d="M81.192 30.6001H77.928C76.576 30.6001 75.48 31.6961 75.48 33.0481V36.3121C75.48 37.6641 76.576 38.7601 77.928 38.7601H81.192C82.544 38.7601 83.64 37.6641 83.64 36.3121V33.0481C83.64 31.6961 82.544 30.6001 81.192 30.6001Z" fill="white"/>
<path d="M24.888 59.1602H19.992C17.964 59.1602 16.32 60.8042 16.32 62.8322V67.7282C16.32 69.7561 17.964 71.4002 19.992 71.4002H24.888C26.916 71.4002 28.56 69.7561 28.56 67.7282V62.8322C28.56 60.8042 26.916 59.1602 24.888 59.1602Z" fill="white"/>
<path d="M36.312 75.48H33.048C31.696 75.48 30.6 76.576 30.6 77.928V81.192C30.6 82.544 31.696 83.64 33.048 83.64H36.312C37.664 83.64 38.76 82.544 38.76 81.192V77.928C38.76 76.576 37.664 75.48 36.312 75.48Z" fill="white"/>
<path d="M64.158 36.7202H61.302C60.119 36.7202 59.16 37.6792 59.16 38.8622V41.7182C59.16 42.9012 60.119 43.8602 61.302 43.8602H64.158C65.341 43.8602 66.3 42.9012 66.3 41.7182V38.8622C66.3 37.6792 65.341 36.7202 64.158 36.7202Z" fill="white"/>
<path d="M41.718 59.1602H38.862C37.679 59.1602 36.72 60.1192 36.72 61.3022V64.1582C36.72 65.3412 37.679 66.3002 38.862 66.3002H41.718C42.901 66.3002 43.86 65.3412 43.86 64.1582V61.3022C43.86 60.1192 42.901 59.1602 41.718 59.1602Z" fill="white"/>
<defs>
<linearGradient id="paint0_linear_143_688" x1="118" y1="28" x2="206.499" y2="85.0004" gradientUnits="userSpaceOnUse">
<stop stop-color="#172E7C"/>
<stop offset="0.52" stop-color="#004E8C"/>
<stop offset="1" stop-color="#018989"/>
</linearGradient>
<linearGradient id="paint1_linear_143_688" x1="119.5" y1="29" x2="193.171" y2="86.5769" gradientUnits="userSpaceOnUse">
<stop stop-color="#172E7C"/>
<stop offset="0.52" stop-color="#004E8C"/>
<stop offset="1" stop-color="#018989"/>
</linearGradient>
<linearGradient id="paint2_linear_143_688" x1="8.16" y1="8.16012" x2="93.84" y2="93.8401" gradientUnits="userSpaceOnUse">
<stop stop-color="#172E7C"/>
<stop offset="0.52" stop-color="#004E8C"/>
<stop offset="1" stop-color="#018989"/>
</linearGradient>
<linearGradient id="paint3_linear_143_688" x1="8.16003" y1="8.16003" x2="93.84" y2="93.84" gradientUnits="userSpaceOnUse">
<stop stop-color="#172E7C"/>
<stop offset="0.52" stop-color="#004E8C"/>
<stop offset="1" stop-color="#018989"/>
</linearGradient>
<linearGradient id="paint4_linear_143_688" x1="8.15998" y1="8.15985" x2="93.84" y2="93.8399" gradientUnits="userSpaceOnUse">
<stop stop-color="#172E7C"/>
<stop offset="0.52" stop-color="#004E8C"/>
<stop offset="1" stop-color="#018989"/>
</linearGradient>
</defs>
</svg>
