<svg width="300" height="70" viewBox="0 0 300 70" fill="none" xmlns="http://www.w3.org/2000/svg">
<path d="M128.34 54.792C125.951 54.792 123.412 54.472 120.724 53.832C118.036 53.192 115.497 52.3173 113.108 51.208V43.016C118.655 46.0027 123.604 47.496 127.956 47.496C130.132 47.496 131.881 47.0267 133.204 46.088C134.569 45.1493 135.252 43.8267 135.252 42.12C135.252 40.9253 134.868 39.9227 134.1 39.112C133.375 38.2587 132.457 37.576 131.348 37.064C130.239 36.5093 128.66 35.848 126.612 35.08C123.839 34.056 121.577 33.0747 119.828 32.136C118.079 31.1973 116.585 29.8747 115.348 28.168C114.111 26.4187 113.492 24.1787 113.492 21.448C113.492 17.4373 114.879 14.3227 117.652 12.104C120.425 9.84267 124.223 8.712 129.044 8.712C131.305 8.712 133.524 8.968 135.7 9.48C137.876 9.94933 139.881 10.6533 141.716 11.592V19.592C137.407 17.2027 133.247 16.008 129.236 16.008C127.017 16.008 125.268 16.4133 123.988 17.224C122.751 17.992 122.132 19.1013 122.132 20.552C122.132 22.0027 122.772 23.1547 124.052 24.008C125.375 24.8187 127.401 25.7147 130.132 26.696C132.991 27.7627 135.337 28.7867 137.172 29.768C139.007 30.7493 140.585 32.1787 141.908 34.056C143.273 35.8907 143.999 38.28 144.084 41.224C144.084 45.448 142.655 48.776 139.796 51.208C136.937 53.5973 133.119 54.792 128.34 54.792Z" fill="#9FB0C9"/>
<path d="M160.061 20.616H167.742V26.888H160.061V43.016C160.061 46.2587 161.299 47.88 163.773 47.88C164.925 47.88 166.269 47.4747 167.805 46.664V53.64C166.739 54.024 165.736 54.3013 164.798 54.472C163.902 54.6853 162.877 54.792 161.725 54.792C154.984 54.792 151.613 50.8667 151.613 43.016V26.888H146.749V20.616H151.613V11.656L160.061 8.712V20.616Z" fill="#9FB0C9"/>
<path d="M195.479 54.024L194.262 49.672C192.086 51.592 190.167 52.936 188.503 53.704C186.881 54.4293 185.025 54.792 182.935 54.792C180.929 54.792 179.094 54.3227 177.43 53.384C175.809 52.4453 174.529 51.1653 173.59 49.544C172.694 47.88 172.247 46.024 172.247 43.976V20.616H180.695V39.176C180.695 41.864 181.121 43.8907 181.975 45.256C182.828 46.6213 184.065 47.304 185.687 47.304C187.052 47.304 188.332 47.0053 189.527 46.408C190.721 45.8107 192.001 44.8507 193.367 43.528V20.616H201.814V46.6L203.223 54.024H195.479Z" fill="#9FB0C9"/>
<path d="M233.216 54.024L231.936 49.544C230.4 51.208 228.608 52.488 226.56 53.384C224.555 54.28 222.443 54.728 220.224 54.728C216.299 54.728 213.184 53.192 210.88 50.12C208.619 47.048 207.488 42.8667 207.488 37.576C207.488 31.9867 208.789 27.6347 211.392 24.52C214.037 21.4053 217.749 19.848 222.528 19.848C225.6 19.848 228.459 20.5093 231.104 21.832V5.768H239.552V46.6L240.96 54.024H233.216ZM216.384 37.448C216.384 40.776 216.896 43.336 217.92 45.128C218.944 46.92 220.459 47.816 222.464 47.816C225.28 47.816 228.16 46.408 231.104 43.592V27.784C228.629 27.144 226.368 26.824 224.32 26.824C221.589 26.824 219.584 27.6987 218.304 29.448C217.024 31.1547 216.384 33.8213 216.384 37.448Z" fill="#9FB0C9"/>
<path d="M249.962 15.624C248.511 15.624 247.273 15.1333 246.249 14.152C245.225 13.1707 244.714 11.8907 244.714 10.312C244.714 8.73333 245.225 7.45333 246.249 6.472C247.273 5.49067 248.511 5 249.962 5C251.412 5 252.649 5.49067 253.673 6.472C254.697 7.45333 255.21 8.73333 255.21 10.312C255.21 11.8907 254.697 13.1707 253.673 14.152C252.649 15.1333 251.412 15.624 249.962 15.624ZM254.186 20.616V54.024H245.737V20.68L254.186 20.616Z" fill="#9FB0C9"/>
<path d="M275.579 54.792C272.208 54.792 269.243 54.088 266.683 52.68C264.123 51.2293 262.139 49.1813 260.731 46.536C259.366 43.8907 258.683 40.8187 258.683 37.32C258.683 33.8213 259.366 30.7493 260.731 28.104C262.139 25.4587 264.123 23.432 266.683 22.024C269.243 20.5733 272.208 19.848 275.579 19.848C278.95 19.848 281.915 20.5733 284.475 22.024C287.035 23.432 288.998 25.4587 290.363 28.104C291.771 30.7493 292.475 33.8213 292.475 37.32C292.475 40.8187 291.771 43.8907 290.363 46.536C288.998 49.1813 287.035 51.2293 284.475 52.68C281.915 54.088 278.95 54.792 275.579 54.792ZM275.579 47.816C278.096 47.816 280.059 46.92 281.467 45.128C282.875 43.2933 283.579 40.6907 283.579 37.32C283.579 33.9067 282.875 31.304 281.467 29.512C280.059 27.72 278.096 26.824 275.579 26.824C273.062 26.824 271.099 27.72 269.691 29.512C268.283 31.304 267.579 33.9067 267.579 37.32C267.579 40.6907 268.283 43.2933 269.691 45.128C271.099 46.92 273.062 47.816 275.579 47.816Z" fill="#9FB0C9"/>
<path d="M39.2002 8C46.8216 8.0001 52.9999 14.1784 53 21.7998V40.2002C52.9999 46.8984 48.2274 52.4809 41.8975 53.7354L43.1631 56.4492C43.2087 56.547 43.2453 56.6469 43.2773 56.7471C43.4707 56.9438 43.6365 57.1742 43.7598 57.4385L45.1631 60.4492C45.7445 61.6962 45.2049 63.1783 43.958 63.7598L40.9482 65.1631C39.7013 65.7445 38.2192 65.205 37.6377 63.958L36.2334 60.9482C36.1877 60.8502 36.1512 60.7498 36.1191 60.6494C35.9261 60.4528 35.7608 60.222 35.6377 59.958L34.2334 56.9482C34.1877 56.8502 34.1512 56.7498 34.1191 56.6494C33.9261 56.4528 33.7608 56.222 33.6377 55.958L32.7246 54H20.7998C13.1784 53.9999 7.0001 47.8216 7 40.2002V21.7998C7.0001 14.1784 13.1784 8.0001 20.7998 8H39.2002ZM24.4004 17C19.7612 17 16 20.7612 16 25.4004V36.5996C16 41.2388 19.7612 45 24.4004 45H35.5996C40.2388 45 44 41.2388 44 36.5996V25.4004C44 20.7612 40.2388 17 35.5996 17H24.4004Z" fill="url(#paint0_linear_142_547)"/>
<path d="M81.9004 9C87.202 9.00017 91.4998 12.6264 91.5 17.0996V27.9004C91.4998 31.5695 88.6077 34.6663 84.6426 35.6621L87.9326 41.8486C87.9802 41.9382 88.0197 42.0308 88.0557 42.123C88.112 42.2045 88.1662 42.2893 88.2139 42.3789L91.6885 48.9131C92.3491 50.1563 91.8768 51.7001 90.6338 52.3613L87.6318 53.957C86.3885 54.618 84.8449 54.1464 84.1836 52.9033L80.709 46.3691C80.6614 46.2796 80.6209 46.1879 80.585 46.0957C80.5287 46.0144 80.4753 45.9293 80.4277 45.8398L75.5449 36.6562C75.4324 36.4444 75.3553 36.2234 75.3066 36H69.0996C68.7277 36 68.3609 35.9791 68 35.9443V43.4502C68 43.5517 67.992 43.6516 67.9805 43.75C67.992 43.8484 68 43.9483 68 44.0498V51.4502C67.9999 52.8584 66.8584 53.9999 65.4502 54H62.0498C60.6416 53.9999 59.5001 52.8584 59.5 51.4502V44.0498C59.5 43.9483 59.507 43.8484 59.5186 43.75C59.507 43.6516 59.5 43.5517 59.5 43.4502V28.0498C59.5 28.0305 59.5015 28.0114 59.502 27.9922C59.5015 27.9616 59.5 27.931 59.5 27.9004V17.0996C59.5002 12.6264 63.798 9.00018 69.0996 9H81.9004ZM72.5 16C70.0147 16 68 18.0147 68 20.5V26.5C68 28.9853 70.0147 31 72.5 31H78.5C80.9853 31 83 28.9853 83 26.5V20.5C83 18.0147 80.9853 16 78.5 16H72.5Z" fill="url(#paint1_linear_142_547)"/>
<defs>
<linearGradient id="paint0_linear_142_547" x1="7" y1="8" x2="95.4993" y2="65.0003" gradientUnits="userSpaceOnUse">
<stop stop-color="#172E7C"/>
<stop offset="0.52" stop-color="#004E8C"/>
<stop offset="1" stop-color="#018989"/>
</linearGradient>
<linearGradient id="paint1_linear_142_547" x1="8.5" y1="9" x2="82.1706" y2="66.5769" gradientUnits="userSpaceOnUse">
<stop stop-color="#172E7C"/>
<stop offset="0.52" stop-color="#004E8C"/>
<stop offset="1" stop-color="#018989"/>
</linearGradient>
</defs>
</svg>
