<svg width="500" height="500" viewBox="0 0 500 500" fill="none" xmlns="http://www.w3.org/2000/svg">
<path d="M124.44 205.12H79.56C67.1667 205.12 57.12 215.167 57.12 227.56V272.44C57.12 284.833 67.1667 294.88 79.56 294.88H124.44C136.833 294.88 146.88 284.833 146.88 272.44V227.56C146.88 215.167 136.833 205.12 124.44 205.12Z" fill="#13213B"/>
<path d="M86.4144 215.32H74.7456C70.6446 215.32 67.32 218.644 67.32 222.745V234.414C67.32 238.515 70.6446 241.84 74.7456 241.84H86.4144C90.5155 241.84 93.84 238.515 93.84 234.414V222.745C93.84 218.644 90.5155 215.32 86.4144 215.32Z" fill="url(#paint0_linear_138_394)"/>
<path d="M84.7171 220.624H76.4429C74.3338 220.624 72.624 222.334 72.624 224.443V232.717C72.624 234.826 74.3338 236.536 76.4429 236.536H84.7171C86.8262 236.536 88.536 234.826 88.536 232.717V224.443C88.536 222.334 86.8262 220.624 84.7171 220.624Z" fill="#13213B"/>
<path d="M82.0651 224.867H79.0949C77.8646 224.867 76.8672 225.865 76.8672 227.095V230.065C76.8672 231.295 77.8646 232.293 79.0949 232.293H82.0651C83.2954 232.293 84.2928 231.295 84.2928 230.065V227.095C84.2928 225.865 83.2954 224.867 82.0651 224.867Z" fill="url(#paint1_linear_138_394)"/>
<path d="M129.254 258.16H117.586C113.485 258.16 110.16 261.485 110.16 265.586V277.255C110.16 281.356 113.485 284.68 117.586 284.68H129.254C133.355 284.68 136.68 281.356 136.68 277.255V265.586C136.68 261.485 133.355 258.16 129.254 258.16Z" fill="url(#paint2_linear_138_394)"/>
<path d="M127.557 263.464H119.283C117.174 263.464 115.464 265.174 115.464 267.283V275.557C115.464 277.666 117.174 279.376 119.283 279.376H127.557C129.666 279.376 131.376 277.666 131.376 275.557V267.283C131.376 265.174 129.666 263.464 127.557 263.464Z" fill="#13213B"/>
<path d="M124.905 267.707H121.935C120.705 267.707 119.707 268.704 119.707 269.935V272.905C119.707 274.135 120.705 275.133 121.935 275.133H124.905C126.135 275.133 127.133 274.135 127.133 272.905V269.935C127.133 268.704 126.135 267.707 124.905 267.707Z" fill="url(#paint3_linear_138_394)"/>
<path d="M118.728 215.32H113.832C111.804 215.32 110.16 216.964 110.16 218.992V223.888C110.16 225.916 111.804 227.56 113.832 227.56H118.728C120.756 227.56 122.4 225.916 122.4 223.888V218.992C122.4 216.964 120.756 215.32 118.728 215.32Z" fill="url(#paint4_linear_138_394)"/>
<path d="M132.192 229.6H128.928C127.576 229.6 126.48 230.696 126.48 232.048V235.312C126.48 236.664 127.576 237.76 128.928 237.76H132.192C133.544 237.76 134.64 236.664 134.64 235.312V232.048C134.64 230.696 133.544 229.6 132.192 229.6Z" fill="url(#paint5_linear_138_394)"/>
<path d="M75.888 258.16H70.992C68.964 258.16 67.32 259.804 67.32 261.832V266.728C67.32 268.756 68.964 270.4 70.992 270.4H75.888C77.916 270.4 79.56 268.756 79.56 266.728V261.832C79.56 259.804 77.916 258.16 75.888 258.16Z" fill="url(#paint6_linear_138_394)"/>
<path d="M87.312 274.48H84.048C82.696 274.48 81.6 275.576 81.6 276.928V280.192C81.6 281.544 82.696 282.64 84.048 282.64H87.312C88.664 282.64 89.76 281.544 89.76 280.192V276.928C89.76 275.576 88.664 274.48 87.312 274.48Z" fill="url(#paint7_linear_138_394)"/>
<path d="M115.158 235.72H112.302C111.119 235.72 110.16 236.679 110.16 237.862V240.718C110.16 241.901 111.119 242.86 112.302 242.86H115.158C116.341 242.86 117.3 241.901 117.3 240.718V237.862C117.3 236.679 116.341 235.72 115.158 235.72Z" fill="url(#paint8_linear_138_394)"/>
<path d="M92.718 258.16H89.862C88.679 258.16 87.72 259.119 87.72 260.302V263.158C87.72 264.341 88.679 265.3 89.862 265.3H92.718C93.901 265.3 94.86 264.341 94.86 263.158V260.302C94.86 259.119 93.901 258.16 92.718 258.16Z" fill="url(#paint9_linear_138_394)"/>
<path d="M285.34 274.792C282.951 274.792 280.412 274.472 277.724 273.832C275.036 273.192 272.497 272.317 270.108 271.208V263.016C275.655 266.003 280.604 267.496 284.956 267.496C287.132 267.496 288.881 267.027 290.204 266.088C291.569 265.149 292.252 263.827 292.252 262.12C292.252 260.925 291.868 259.923 291.1 259.112C290.375 258.259 289.457 257.576 288.348 257.064C287.239 256.509 285.66 255.848 283.612 255.08C280.839 254.056 278.577 253.075 276.828 252.136C275.079 251.197 273.585 249.875 272.348 248.168C271.111 246.419 270.492 244.179 270.492 241.448C270.492 237.437 271.879 234.323 274.652 232.104C277.425 229.843 281.223 228.712 286.044 228.712C288.305 228.712 290.524 228.968 292.7 229.48C294.876 229.949 296.881 230.653 298.716 231.592V239.592C294.407 237.203 290.247 236.008 286.236 236.008C284.017 236.008 282.268 236.413 280.988 237.224C279.751 237.992 279.132 239.101 279.132 240.552C279.132 242.003 279.772 243.155 281.052 244.008C282.375 244.819 284.401 245.715 287.132 246.696C289.991 247.763 292.337 248.787 294.172 249.768C296.007 250.749 297.585 252.179 298.908 254.056C300.273 255.891 300.999 258.28 301.084 261.224C301.084 265.448 299.655 268.776 296.796 271.208C293.937 273.597 290.119 274.792 285.34 274.792Z" fill="#9FB0C9"/>
<path d="M317.061 240.616H324.742V246.888H317.061V263.016C317.061 266.259 318.299 267.88 320.773 267.88C321.925 267.88 323.269 267.475 324.805 266.664V273.64C323.739 274.024 322.736 274.301 321.798 274.472C320.902 274.685 319.877 274.792 318.725 274.792C311.984 274.792 308.613 270.867 308.613 263.016V246.888H303.749V240.616H308.613V231.656L317.061 228.712V240.616Z" fill="#9FB0C9"/>
<path d="M352.479 274.024L351.262 269.672C349.086 271.592 347.167 272.936 345.503 273.704C343.881 274.429 342.025 274.792 339.935 274.792C337.929 274.792 336.094 274.323 334.43 273.384C332.809 272.445 331.529 271.165 330.59 269.544C329.694 267.88 329.247 266.024 329.247 263.976V240.616H337.695V259.176C337.695 261.864 338.121 263.891 338.975 265.256C339.828 266.621 341.065 267.304 342.687 267.304C344.052 267.304 345.332 267.005 346.527 266.408C347.721 265.811 349.001 264.851 350.367 263.528V240.616H358.814V266.6L360.223 274.024H352.479Z" fill="#9FB0C9"/>
<path d="M390.216 274.024L388.936 269.544C387.4 271.208 385.608 272.488 383.56 273.384C381.555 274.28 379.443 274.728 377.224 274.728C373.299 274.728 370.184 273.192 367.88 270.12C365.619 267.048 364.488 262.867 364.488 257.576C364.488 251.987 365.789 247.635 368.392 244.52C371.037 241.405 374.749 239.848 379.528 239.848C382.6 239.848 385.459 240.509 388.104 241.832V225.768H396.552V266.6L397.96 274.024H390.216ZM373.384 257.448C373.384 260.776 373.896 263.336 374.92 265.128C375.944 266.92 377.459 267.816 379.464 267.816C382.28 267.816 385.16 266.408 388.104 263.592V247.784C385.629 247.144 383.368 246.824 381.32 246.824C378.589 246.824 376.584 247.699 375.304 249.448C374.024 251.155 373.384 253.821 373.384 257.448Z" fill="#9FB0C9"/>
<path d="M406.962 235.624C405.511 235.624 404.273 235.133 403.249 234.152C402.225 233.171 401.714 231.891 401.714 230.312C401.714 228.733 402.225 227.453 403.249 226.472C404.273 225.491 405.511 225 406.962 225C408.412 225 409.649 225.491 410.673 226.472C411.697 227.453 412.21 228.733 412.21 230.312C412.21 231.891 411.697 233.171 410.673 234.152C409.649 235.133 408.412 235.624 406.962 235.624ZM411.186 240.616V274.024H402.737V240.68L411.186 240.616Z" fill="#9FB0C9"/>
<path d="M432.579 274.792C429.208 274.792 426.243 274.088 423.683 272.68C421.123 271.229 419.139 269.181 417.731 266.536C416.366 263.891 415.683 260.819 415.683 257.32C415.683 253.821 416.366 250.749 417.731 248.104C419.139 245.459 421.123 243.432 423.683 242.024C426.243 240.573 429.208 239.848 432.579 239.848C435.95 239.848 438.915 240.573 441.475 242.024C444.035 243.432 445.998 245.459 447.363 248.104C448.771 250.749 449.475 253.821 449.475 257.32C449.475 260.819 448.771 263.891 447.363 266.536C445.998 269.181 444.035 271.229 441.475 272.68C438.915 274.088 435.95 274.792 432.579 274.792ZM432.579 267.816C435.096 267.816 437.059 266.92 438.467 265.128C439.875 263.293 440.579 260.691 440.579 257.32C440.579 253.907 439.875 251.304 438.467 249.512C437.059 247.72 435.096 246.824 432.579 246.824C430.062 246.824 428.099 247.72 426.691 249.512C425.283 251.304 424.579 253.907 424.579 257.32C424.579 260.691 425.283 263.293 426.691 265.128C428.099 266.92 430.062 267.816 432.579 267.816Z" fill="#9FB0C9"/>
<path d="M196.2 228C203.822 228 210 234.178 210 241.8V260.2C210 266.898 205.227 272.481 198.897 273.735L200.163 276.449C200.209 276.547 200.245 276.647 200.277 276.747C200.471 276.944 200.637 277.174 200.76 277.438L202.163 280.449C202.745 281.696 202.205 283.178 200.958 283.76L197.948 285.163C196.701 285.745 195.219 285.205 194.638 283.958L193.233 280.948C193.188 280.85 193.151 280.75 193.119 280.649C192.926 280.453 192.761 280.222 192.638 279.958L191.233 276.948C191.188 276.85 191.151 276.75 191.119 276.649C190.926 276.453 190.761 276.222 190.638 275.958L189.725 274H177.8C170.178 274 164 267.822 164 260.2V241.8C164 234.178 170.178 228 177.8 228H196.2ZM181.4 237C176.761 237 173 240.761 173 245.4V256.6C173 261.239 176.761 265 181.4 265H192.6C197.239 265 201 261.239 201 256.6V245.4C201 240.761 197.239 237 192.6 237H181.4Z" fill="url(#paint10_linear_138_394)"/>
<path d="M238.9 229C244.202 229 248.5 232.626 248.5 237.1V247.9C248.5 251.569 245.608 254.666 241.643 255.662L244.933 261.849C244.98 261.938 245.02 262.031 245.056 262.123C245.112 262.204 245.166 262.289 245.214 262.379L248.688 268.913C249.349 270.156 248.877 271.7 247.634 272.361L244.632 273.957C243.389 274.618 241.845 274.146 241.184 272.903L237.709 266.369C237.661 266.28 237.621 266.188 237.585 266.096C237.529 266.014 237.475 265.929 237.428 265.84L232.545 256.656C232.432 256.444 232.355 256.223 232.307 256H226.1C225.728 256 225.361 255.979 225 255.944V263.45C225 263.552 224.992 263.652 224.98 263.75C224.992 263.848 225 263.948 225 264.05V271.45C225 272.858 223.858 274 222.45 274H219.05C217.642 274 216.5 272.858 216.5 271.45V264.05C216.5 263.948 216.507 263.848 216.519 263.75C216.507 263.652 216.5 263.552 216.5 263.45V248.05C216.5 248.031 216.502 248.011 216.502 247.992C216.502 247.962 216.5 247.931 216.5 247.9V237.1C216.5 232.626 220.798 229 226.1 229H238.9ZM229.5 236C227.015 236 225 238.015 225 240.5V246.5C225 248.985 227.015 251 229.5 251H235.5C237.985 251 240 248.985 240 246.5V240.5C240 238.015 237.985 236 235.5 236H229.5Z" fill="url(#paint11_linear_138_394)"/>
<defs>
<linearGradient id="paint0_linear_138_394" x1="59.16" y1="207.16" x2="144.84" y2="292.84" gradientUnits="userSpaceOnUse">
<stop stop-color="#172E7C"/>
<stop offset="0.52" stop-color="#004E8C"/>
<stop offset="1" stop-color="#018989"/>
</linearGradient>
<linearGradient id="paint1_linear_138_394" x1="59.16" y1="207.16" x2="144.84" y2="292.84" gradientUnits="userSpaceOnUse">
<stop stop-color="#172E7C"/>
<stop offset="0.52" stop-color="#004E8C"/>
<stop offset="1" stop-color="#018989"/>
</linearGradient>
<linearGradient id="paint2_linear_138_394" x1="59.16" y1="207.16" x2="144.84" y2="292.84" gradientUnits="userSpaceOnUse">
<stop stop-color="#172E7C"/>
<stop offset="0.52" stop-color="#004E8C"/>
<stop offset="1" stop-color="#018989"/>
</linearGradient>
<linearGradient id="paint3_linear_138_394" x1="59.16" y1="207.16" x2="144.84" y2="292.84" gradientUnits="userSpaceOnUse">
<stop stop-color="#172E7C"/>
<stop offset="0.52" stop-color="#004E8C"/>
<stop offset="1" stop-color="#018989"/>
</linearGradient>
<linearGradient id="paint4_linear_138_394" x1="59.16" y1="207.16" x2="144.84" y2="292.84" gradientUnits="userSpaceOnUse">
<stop stop-color="#172E7C"/>
<stop offset="0.52" stop-color="#004E8C"/>
<stop offset="1" stop-color="#018989"/>
</linearGradient>
<linearGradient id="paint5_linear_138_394" x1="59.16" y1="207.16" x2="144.84" y2="292.84" gradientUnits="userSpaceOnUse">
<stop stop-color="#172E7C"/>
<stop offset="0.52" stop-color="#004E8C"/>
<stop offset="1" stop-color="#018989"/>
</linearGradient>
<linearGradient id="paint6_linear_138_394" x1="59.16" y1="207.16" x2="144.84" y2="292.84" gradientUnits="userSpaceOnUse">
<stop stop-color="#172E7C"/>
<stop offset="0.52" stop-color="#004E8C"/>
<stop offset="1" stop-color="#018989"/>
</linearGradient>
<linearGradient id="paint7_linear_138_394" x1="59.16" y1="207.16" x2="144.84" y2="292.84" gradientUnits="userSpaceOnUse">
<stop stop-color="#172E7C"/>
<stop offset="0.52" stop-color="#004E8C"/>
<stop offset="1" stop-color="#018989"/>
</linearGradient>
<linearGradient id="paint8_linear_138_394" x1="59.16" y1="207.16" x2="144.84" y2="292.84" gradientUnits="userSpaceOnUse">
<stop stop-color="#172E7C"/>
<stop offset="0.52" stop-color="#004E8C"/>
<stop offset="1" stop-color="#018989"/>
</linearGradient>
<linearGradient id="paint9_linear_138_394" x1="59.16" y1="207.16" x2="144.84" y2="292.84" gradientUnits="userSpaceOnUse">
<stop stop-color="#172E7C"/>
<stop offset="0.52" stop-color="#004E8C"/>
<stop offset="1" stop-color="#018989"/>
</linearGradient>
<linearGradient id="paint10_linear_138_394" x1="164" y1="228" x2="252.499" y2="285" gradientUnits="userSpaceOnUse">
<stop stop-color="#172E7C"/>
<stop offset="0.52" stop-color="#004E8C"/>
<stop offset="1" stop-color="#018989"/>
</linearGradient>
<linearGradient id="paint11_linear_138_394" x1="165.5" y1="229" x2="239.171" y2="286.577" gradientUnits="userSpaceOnUse">
<stop stop-color="#172E7C"/>
<stop offset="0.52" stop-color="#004E8C"/>
<stop offset="1" stop-color="#018989"/>
</linearGradient>
</defs>
</svg>
