<svg width="500" height="500" viewBox="0 0 500 500" fill="none" xmlns="http://www.w3.org/2000/svg">
<path d="M125.44 205.12H80.56C68.1667 205.12 58.12 215.167 58.12 227.56V272.44C58.12 284.833 68.1667 294.88 80.56 294.88H125.44C137.833 294.88 147.88 284.833 147.88 272.44V227.56C147.88 215.167 137.833 205.12 125.44 205.12Z" fill="url(#paint0_linear_138_445)"/>
<path d="M87.4144 215.32H75.7456C71.6446 215.32 68.32 218.644 68.32 222.745V234.414C68.32 238.515 71.6446 241.84 75.7456 241.84H87.4144C91.5155 241.84 94.84 238.515 94.84 234.414V222.745C94.84 218.644 91.5155 215.32 87.4144 215.32Z" fill="white"/>
<path d="M85.7171 220.624H77.4429C75.3338 220.624 73.624 222.334 73.624 224.443V232.717C73.624 234.826 75.3338 236.536 77.4429 236.536H85.7171C87.8262 236.536 89.536 234.826 89.536 232.717V224.443C89.536 222.334 87.8262 220.624 85.7171 220.624Z" fill="url(#paint1_linear_138_445)"/>
<path d="M83.0651 224.867H80.0949C78.8646 224.867 77.8672 225.865 77.8672 227.095V230.065C77.8672 231.295 78.8646 232.293 80.0949 232.293H83.0651C84.2954 232.293 85.2928 231.295 85.2928 230.065V227.095C85.2928 225.865 84.2954 224.867 83.0651 224.867Z" fill="white"/>
<path d="M130.254 258.16H118.586C114.485 258.16 111.16 261.485 111.16 265.586V277.255C111.16 281.356 114.485 284.68 118.586 284.68H130.254C134.355 284.68 137.68 281.356 137.68 277.255V265.586C137.68 261.485 134.355 258.16 130.254 258.16Z" fill="white"/>
<path d="M128.557 263.464H120.283C118.174 263.464 116.464 265.174 116.464 267.283V275.557C116.464 277.666 118.174 279.376 120.283 279.376H128.557C130.666 279.376 132.376 277.666 132.376 275.557V267.283C132.376 265.174 130.666 263.464 128.557 263.464Z" fill="url(#paint2_linear_138_445)"/>
<path d="M125.905 267.707H122.935C121.705 267.707 120.707 268.704 120.707 269.935V272.905C120.707 274.135 121.705 275.133 122.935 275.133H125.905C127.135 275.133 128.133 274.135 128.133 272.905V269.935C128.133 268.704 127.135 267.707 125.905 267.707Z" fill="white"/>
<path d="M119.728 215.32H114.832C112.804 215.32 111.16 216.964 111.16 218.992V223.888C111.16 225.916 112.804 227.56 114.832 227.56H119.728C121.756 227.56 123.4 225.916 123.4 223.888V218.992C123.4 216.964 121.756 215.32 119.728 215.32Z" fill="white"/>
<path d="M133.192 229.6H129.928C128.576 229.6 127.48 230.696 127.48 232.048V235.312C127.48 236.664 128.576 237.76 129.928 237.76H133.192C134.544 237.76 135.64 236.664 135.64 235.312V232.048C135.64 230.696 134.544 229.6 133.192 229.6Z" fill="white"/>
<path d="M76.888 258.16H71.992C69.964 258.16 68.32 259.804 68.32 261.832V266.728C68.32 268.756 69.964 270.4 71.992 270.4H76.888C78.916 270.4 80.56 268.756 80.56 266.728V261.832C80.56 259.804 78.916 258.16 76.888 258.16Z" fill="white"/>
<path d="M88.312 274.48H85.048C83.696 274.48 82.6 275.576 82.6 276.928V280.192C82.6 281.544 83.696 282.64 85.048 282.64H88.312C89.664 282.64 90.76 281.544 90.76 280.192V276.928C90.76 275.576 89.664 274.48 88.312 274.48Z" fill="white"/>
<path d="M116.158 235.72H113.302C112.119 235.72 111.16 236.679 111.16 237.862V240.718C111.16 241.901 112.119 242.86 113.302 242.86H116.158C117.341 242.86 118.3 241.901 118.3 240.718V237.862C118.3 236.679 117.341 235.72 116.158 235.72Z" fill="white"/>
<path d="M93.718 258.16H90.862C89.679 258.16 88.72 259.119 88.72 260.302V263.158C88.72 264.341 89.679 265.3 90.862 265.3H93.718C94.901 265.3 95.86 264.341 95.86 263.158V260.302C95.86 259.119 94.901 258.16 93.718 258.16Z" fill="white"/>
<path d="M237.9 224C243.202 224 247.5 227.626 247.5 232.1V242.9C247.5 246.569 244.608 249.666 240.643 250.662L243.933 256.849C243.98 256.938 244.02 257.031 244.056 257.123C244.112 257.204 244.166 257.289 244.214 257.379L247.688 263.913C248.349 265.156 247.877 266.7 246.634 267.361L243.632 268.957C242.389 269.618 240.845 269.146 240.184 267.903L236.709 261.369C236.661 261.28 236.621 261.188 236.585 261.096C236.529 261.014 236.475 260.929 236.428 260.84L231.545 251.656C231.432 251.444 231.355 251.223 231.307 251H225.1C224.728 251 224.361 250.979 224 250.944V258.45C224 258.552 223.992 258.652 223.98 258.75C223.992 258.848 224 258.948 224 259.05V266.45C224 267.858 222.858 269 221.45 269H218.05C216.642 269 215.5 267.858 215.5 266.45V259.05C215.5 258.948 215.507 258.848 215.519 258.75C215.507 258.652 215.5 258.552 215.5 258.45V243.05C215.5 243.031 215.502 243.011 215.502 242.992C215.502 242.962 215.5 242.931 215.5 242.9V232.1C215.5 227.626 219.798 224 225.1 224H237.9ZM228.5 231C226.015 231 224 233.015 224 235.5V241.5C224 243.985 226.015 246 228.5 246H234.5C236.985 246 239 243.985 239 241.5V235.5C239 233.015 236.985 231 234.5 231H228.5Z" fill="url(#paint3_linear_138_445)"/>
<path d="M284.34 269.792C281.951 269.792 279.412 269.472 276.724 268.832C274.036 268.192 271.497 267.317 269.108 266.208V258.016C274.655 261.003 279.604 262.496 283.956 262.496C286.132 262.496 287.881 262.027 289.204 261.088C290.569 260.149 291.252 258.827 291.252 257.12C291.252 255.925 290.868 254.923 290.1 254.112C289.375 253.259 288.457 252.576 287.348 252.064C286.239 251.509 284.66 250.848 282.612 250.08C279.839 249.056 277.577 248.075 275.828 247.136C274.079 246.197 272.585 244.875 271.348 243.168C270.111 241.419 269.492 239.179 269.492 236.448C269.492 232.437 270.879 229.323 273.652 227.104C276.425 224.843 280.223 223.712 285.044 223.712C287.305 223.712 289.524 223.968 291.7 224.48C293.876 224.949 295.881 225.653 297.716 226.592V234.592C293.407 232.203 289.247 231.008 285.236 231.008C283.017 231.008 281.268 231.413 279.988 232.224C278.751 232.992 278.132 234.101 278.132 235.552C278.132 237.003 278.772 238.155 280.052 239.008C281.375 239.819 283.401 240.715 286.132 241.696C288.991 242.763 291.337 243.787 293.172 244.768C295.007 245.749 296.585 247.179 297.908 249.056C299.273 250.891 299.999 253.28 300.084 256.224C300.084 260.448 298.655 263.776 295.796 266.208C292.937 268.597 289.119 269.792 284.34 269.792Z" fill="#5A6675"/>
<path d="M316.061 235.616H323.742V241.888H316.061V258.016C316.061 261.259 317.299 262.88 319.773 262.88C320.925 262.88 322.269 262.475 323.805 261.664V268.64C322.739 269.024 321.736 269.301 320.798 269.472C319.902 269.685 318.877 269.792 317.725 269.792C310.984 269.792 307.613 265.867 307.613 258.016V241.888H302.749V235.616H307.613V226.656L316.061 223.712V235.616Z" fill="#5A6675"/>
<path d="M351.479 269.024L350.262 264.672C348.086 266.592 346.167 267.936 344.503 268.704C342.881 269.429 341.025 269.792 338.935 269.792C336.929 269.792 335.094 269.323 333.43 268.384C331.809 267.445 330.529 266.165 329.59 264.544C328.694 262.88 328.247 261.024 328.247 258.976V235.616H336.695V254.176C336.695 256.864 337.121 258.891 337.975 260.256C338.828 261.621 340.065 262.304 341.687 262.304C343.052 262.304 344.332 262.005 345.527 261.408C346.721 260.811 348.001 259.851 349.367 258.528V235.616H357.814V261.6L359.223 269.024H351.479Z" fill="#5A6675"/>
<path d="M389.216 269.024L387.936 264.544C386.4 266.208 384.608 267.488 382.56 268.384C380.555 269.28 378.443 269.728 376.224 269.728C372.299 269.728 369.184 268.192 366.88 265.12C364.619 262.048 363.488 257.867 363.488 252.576C363.488 246.987 364.789 242.635 367.392 239.52C370.037 236.405 373.749 234.848 378.528 234.848C381.6 234.848 384.459 235.509 387.104 236.832V220.768H395.552V261.6L396.96 269.024H389.216ZM372.384 252.448C372.384 255.776 372.896 258.336 373.92 260.128C374.944 261.92 376.459 262.816 378.464 262.816C381.28 262.816 384.16 261.408 387.104 258.592V242.784C384.629 242.144 382.368 241.824 380.32 241.824C377.589 241.824 375.584 242.699 374.304 244.448C373.024 246.155 372.384 248.821 372.384 252.448Z" fill="#5A6675"/>
<path d="M405.962 230.624C404.511 230.624 403.273 230.133 402.249 229.152C401.225 228.171 400.714 226.891 400.714 225.312C400.714 223.733 401.225 222.453 402.249 221.472C403.273 220.491 404.511 220 405.962 220C407.412 220 408.649 220.491 409.673 221.472C410.697 222.453 411.21 223.733 411.21 225.312C411.21 226.891 410.697 228.171 409.673 229.152C408.649 230.133 407.412 230.624 405.962 230.624ZM410.186 235.616V269.024H401.737V235.68L410.186 235.616Z" fill="#5A6675"/>
<path d="M431.579 269.792C428.208 269.792 425.243 269.088 422.683 267.68C420.123 266.229 418.139 264.181 416.731 261.536C415.366 258.891 414.683 255.819 414.683 252.32C414.683 248.821 415.366 245.749 416.731 243.104C418.139 240.459 420.123 238.432 422.683 237.024C425.243 235.573 428.208 234.848 431.579 234.848C434.95 234.848 437.915 235.573 440.475 237.024C443.035 238.432 444.998 240.459 446.363 243.104C447.771 245.749 448.475 248.821 448.475 252.32C448.475 255.819 447.771 258.891 446.363 261.536C444.998 264.181 443.035 266.229 440.475 267.68C437.915 269.088 434.95 269.792 431.579 269.792ZM431.579 262.816C434.096 262.816 436.059 261.92 437.467 260.128C438.875 258.293 439.579 255.691 439.579 252.32C439.579 248.907 438.875 246.304 437.467 244.512C436.059 242.72 434.096 241.824 431.579 241.824C429.062 241.824 427.099 242.72 425.691 244.512C424.283 246.304 423.579 248.907 423.579 252.32C423.579 255.691 424.283 258.293 425.691 260.128C427.099 261.92 429.062 262.816 431.579 262.816Z" fill="#5A6675"/>
<path d="M195.2 223C202.822 223 209 229.178 209 236.8V255.2C209 261.899 204.227 267.481 197.896 268.735L199.163 271.449C199.209 271.547 199.244 271.647 199.276 271.747C199.47 271.944 199.635 272.175 199.759 272.439L201.163 275.449C201.744 276.696 201.205 278.178 199.958 278.76L196.947 280.164C195.701 280.745 194.218 280.205 193.637 278.959L192.233 275.948C192.188 275.851 192.151 275.75 192.119 275.65C191.926 275.454 191.76 275.223 191.637 274.959L190.233 271.948C190.188 271.851 190.151 271.75 190.119 271.65C189.926 271.454 189.76 271.223 189.637 270.959L188.724 269H176.8C169.178 269 163 262.822 163 255.2V236.8C163 229.178 169.178 223 176.8 223H195.2ZM180.4 232C175.761 232 172 235.761 172 240.4V251.6C172 256.239 175.761 260 180.4 260H191.6C196.239 260 200 256.239 200 251.6V240.4C200 235.761 196.239 232 191.6 232H180.4Z" fill="url(#paint4_linear_138_445)"/>
<defs>
<linearGradient id="paint0_linear_138_445" x1="60.16" y1="207.16" x2="145.84" y2="292.84" gradientUnits="userSpaceOnUse">
<stop stop-color="#172E7C"/>
<stop offset="0.52" stop-color="#004E8C"/>
<stop offset="1" stop-color="#018989"/>
</linearGradient>
<linearGradient id="paint1_linear_138_445" x1="60.16" y1="207.16" x2="145.84" y2="292.84" gradientUnits="userSpaceOnUse">
<stop stop-color="#172E7C"/>
<stop offset="0.52" stop-color="#004E8C"/>
<stop offset="1" stop-color="#018989"/>
</linearGradient>
<linearGradient id="paint2_linear_138_445" x1="60.16" y1="207.16" x2="145.84" y2="292.84" gradientUnits="userSpaceOnUse">
<stop stop-color="#172E7C"/>
<stop offset="0.52" stop-color="#004E8C"/>
<stop offset="1" stop-color="#018989"/>
</linearGradient>
<linearGradient id="paint3_linear_138_445" x1="164.5" y1="224" x2="238.171" y2="281.577" gradientUnits="userSpaceOnUse">
<stop stop-color="#172E7C"/>
<stop offset="0.52" stop-color="#004E8C"/>
<stop offset="1" stop-color="#018989"/>
</linearGradient>
<linearGradient id="paint4_linear_138_445" x1="163" y1="223" x2="251.5" y2="280" gradientUnits="userSpaceOnUse">
<stop stop-color="#172E7C"/>
<stop offset="0.52" stop-color="#004E8C"/>
<stop offset="1" stop-color="#018989"/>
</linearGradient>
</defs>
</svg>
