<svg width="500" height="500" viewBox="0 0 500 500" fill="none" xmlns="http://www.w3.org/2000/svg">
<path d="M308.52 88.96H191.48C159.16 88.96 132.96 115.16 132.96 147.48V264.52C132.96 296.84 159.16 323.04 191.48 323.04H308.52C340.84 323.04 367.04 296.84 367.04 264.52V147.48C367.04 115.16 340.84 88.96 308.52 88.96Z" fill="#13213B"/>
<path d="M209.355 115.56H178.925C168.23 115.56 159.56 124.23 159.56 134.925V165.355C159.56 176.05 168.23 184.72 178.925 184.72H209.355C220.05 184.72 228.72 176.05 228.72 165.355V134.925C228.72 124.23 220.05 115.56 209.355 115.56Z" fill="url(#paint0_linear_137_113)"/>
<path d="M204.929 129.392H183.351C177.851 129.392 173.392 133.851 173.392 139.351V160.929C173.392 166.429 177.851 170.888 183.351 170.888H204.929C210.429 170.888 214.888 166.429 214.888 160.929V139.351C214.888 133.851 210.429 129.392 204.929 129.392Z" fill="#13213B"/>
<path d="M198.013 140.458H190.267C187.059 140.458 184.458 143.058 184.458 146.267V154.013C184.458 157.221 187.059 159.822 190.267 159.822H198.013C201.221 159.822 203.822 157.221 203.822 154.013V146.267C203.822 143.058 201.221 140.458 198.013 140.458Z" fill="url(#paint1_linear_137_113)"/>
<path d="M321.075 227.28H290.645C279.95 227.28 271.28 235.95 271.28 246.645V277.075C271.28 287.77 279.95 296.44 290.645 296.44H321.075C331.77 296.44 340.44 287.77 340.44 277.075V246.645C340.44 235.95 331.77 227.28 321.075 227.28Z" fill="url(#paint2_linear_137_113)"/>
<path d="M316.649 241.112H295.071C289.571 241.112 285.112 245.571 285.112 251.071V272.649C285.112 278.149 289.571 282.608 295.071 282.608H316.649C322.149 282.608 326.608 278.149 326.608 272.649V251.071C326.608 245.571 322.149 241.112 316.649 241.112Z" fill="#13213B"/>
<path d="M309.733 252.178H301.987C298.779 252.178 296.178 254.779 296.178 257.987V265.733C296.178 268.942 298.779 271.543 301.987 271.543H309.733C312.941 271.543 315.542 268.942 315.542 265.733V257.987C315.542 254.779 312.941 252.178 309.733 252.178Z" fill="url(#paint3_linear_137_113)"/>
<path d="M293.624 115.56H280.856C275.567 115.56 271.28 119.847 271.28 125.136V137.904C271.28 143.193 275.567 147.48 280.856 147.48H293.624C298.913 147.48 303.2 143.193 303.2 137.904V125.136C303.2 119.847 298.913 115.56 293.624 115.56Z" fill="url(#paint4_linear_137_113)"/>
<path d="M328.736 152.8H320.224C316.698 152.8 313.84 155.658 313.84 159.184V167.696C313.84 171.222 316.698 174.08 320.224 174.08H328.736C332.262 174.08 335.12 171.222 335.12 167.696V159.184C335.12 155.658 332.262 152.8 328.736 152.8Z" fill="url(#paint5_linear_137_113)"/>
<path d="M181.904 227.28H169.136C163.847 227.28 159.56 231.567 159.56 236.856V249.624C159.56 254.912 163.847 259.2 169.136 259.2H181.904C187.193 259.2 191.48 254.912 191.48 249.624V236.856C191.48 231.567 187.193 227.28 181.904 227.28Z" fill="url(#paint6_linear_137_113)"/>
<path d="M211.696 269.84H203.184C199.658 269.84 196.8 272.698 196.8 276.224V284.736C196.8 288.262 199.658 291.12 203.184 291.12H211.696C215.222 291.12 218.08 288.262 218.08 284.736V276.224C218.08 272.698 215.222 269.84 211.696 269.84Z" fill="url(#paint7_linear_137_113)"/>
<path d="M284.314 168.76H276.866C273.781 168.76 271.28 171.261 271.28 174.346V181.794C271.28 184.879 273.781 187.38 276.866 187.38H284.314C287.399 187.38 289.9 184.879 289.9 181.794V174.346C289.9 171.261 287.399 168.76 284.314 168.76Z" fill="url(#paint8_linear_137_113)"/>
<path d="M225.794 227.28H218.346C215.261 227.28 212.76 229.781 212.76 232.866V240.314C212.76 243.399 215.261 245.9 218.346 245.9H225.794C228.879 245.9 231.38 243.399 231.38 240.314V232.866C231.38 229.781 228.879 227.28 225.794 227.28Z" fill="url(#paint9_linear_137_113)"/>
<path d="M229.34 396.792C226.951 396.792 224.412 396.472 221.724 395.832C219.036 395.192 216.497 394.317 214.108 393.208V385.016C219.655 388.003 224.604 389.496 228.956 389.496C231.132 389.496 232.881 389.027 234.204 388.088C235.569 387.149 236.252 385.827 236.252 384.12C236.252 382.925 235.868 381.923 235.1 381.112C234.375 380.259 233.457 379.576 232.348 379.064C231.239 378.509 229.66 377.848 227.612 377.08C224.839 376.056 222.577 375.075 220.828 374.136C219.079 373.197 217.585 371.875 216.348 370.168C215.111 368.419 214.492 366.179 214.492 363.448C214.492 359.437 215.879 356.323 218.652 354.104C221.425 351.843 225.223 350.712 230.044 350.712C232.305 350.712 234.524 350.968 236.7 351.48C238.876 351.949 240.881 352.653 242.716 353.592V361.592C238.407 359.203 234.247 358.008 230.236 358.008C228.017 358.008 226.268 358.413 224.988 359.224C223.751 359.992 223.132 361.101 223.132 362.552C223.132 364.003 223.772 365.155 225.052 366.008C226.375 366.819 228.401 367.715 231.132 368.696C233.991 369.763 236.337 370.787 238.172 371.768C240.007 372.749 241.585 374.179 242.908 376.056C244.273 377.891 244.999 380.28 245.084 383.224C245.084 387.448 243.655 390.776 240.796 393.208C237.937 395.597 234.119 396.792 229.34 396.792Z" fill="#9FB0C9"/>
<path d="M261.061 362.616H268.742V368.888H261.061V385.016C261.061 388.259 262.299 389.88 264.773 389.88C265.925 389.88 267.269 389.475 268.805 388.664V395.64C267.739 396.024 266.736 396.301 265.798 396.472C264.902 396.685 263.877 396.792 262.725 396.792C255.984 396.792 252.613 392.867 252.613 385.016V368.888H247.749V362.616H252.613V353.656L261.061 350.712V362.616Z" fill="#9FB0C9"/>
<path d="M296.479 396.024L295.262 391.672C293.086 393.592 291.167 394.936 289.503 395.704C287.881 396.429 286.025 396.792 283.935 396.792C281.929 396.792 280.094 396.323 278.43 395.384C276.809 394.445 275.529 393.165 274.59 391.544C273.694 389.88 273.247 388.024 273.247 385.976V362.616H281.695V381.176C281.695 383.864 282.121 385.891 282.975 387.256C283.828 388.621 285.065 389.304 286.687 389.304C288.052 389.304 289.332 389.005 290.527 388.408C291.721 387.811 293.001 386.851 294.367 385.528V362.616H302.814V388.6L304.223 396.024H296.479Z" fill="#9FB0C9"/>
<path d="M334.216 396.024L332.936 391.544C331.4 393.208 329.608 394.488 327.56 395.384C325.555 396.28 323.443 396.728 321.224 396.728C317.299 396.728 314.184 395.192 311.88 392.12C309.619 389.048 308.488 384.867 308.488 379.576C308.488 373.987 309.789 369.635 312.392 366.52C315.037 363.405 318.749 361.848 323.528 361.848C326.6 361.848 329.459 362.509 332.104 363.832V347.768H340.552V388.6L341.96 396.024H334.216ZM317.384 379.448C317.384 382.776 317.896 385.336 318.92 387.128C319.944 388.92 321.459 389.816 323.464 389.816C326.28 389.816 329.16 388.408 332.104 385.592V369.784C329.629 369.144 327.368 368.824 325.32 368.824C322.589 368.824 320.584 369.699 319.304 371.448C318.024 373.155 317.384 375.821 317.384 379.448Z" fill="#9FB0C9"/>
<path d="M350.962 357.624C349.511 357.624 348.273 357.133 347.249 356.152C346.225 355.171 345.714 353.891 345.714 352.312C345.714 350.733 346.225 349.453 347.249 348.472C348.273 347.491 349.511 347 350.962 347C352.412 347 353.649 347.491 354.673 348.472C355.697 349.453 356.21 350.733 356.21 352.312C356.21 353.891 355.697 355.171 354.673 356.152C353.649 357.133 352.412 357.624 350.962 357.624ZM355.186 362.616V396.024H346.737V362.68L355.186 362.616Z" fill="#9FB0C9"/>
<path d="M376.579 396.792C373.208 396.792 370.243 396.088 367.683 394.68C365.123 393.229 363.139 391.181 361.731 388.536C360.366 385.891 359.683 382.819 359.683 379.32C359.683 375.821 360.366 372.749 361.731 370.104C363.139 367.459 365.123 365.432 367.683 364.024C370.243 362.573 373.208 361.848 376.579 361.848C379.95 361.848 382.915 362.573 385.475 364.024C388.035 365.432 389.998 367.459 391.363 370.104C392.771 372.749 393.475 375.821 393.475 379.32C393.475 382.819 392.771 385.891 391.363 388.536C389.998 391.181 388.035 393.229 385.475 394.68C382.915 396.088 379.95 396.792 376.579 396.792ZM376.579 389.816C379.096 389.816 381.059 388.92 382.467 387.128C383.875 385.293 384.579 382.691 384.579 379.32C384.579 375.907 383.875 373.304 382.467 371.512C381.059 369.72 379.096 368.824 376.579 368.824C374.062 368.824 372.099 369.72 370.691 371.512C369.283 373.304 368.579 375.907 368.579 379.32C368.579 382.691 369.283 385.293 370.691 387.128C372.099 388.92 374.062 389.816 376.579 389.816Z" fill="#9FB0C9"/>
<path d="M140.2 350C147.822 350 154 356.178 154 363.8V382.2C154 388.898 149.227 394.481 142.897 395.735L144.164 398.449C144.209 398.547 144.245 398.646 144.277 398.746C144.471 398.943 144.636 399.174 144.76 399.438L146.164 402.449C146.745 403.696 146.206 405.178 144.959 405.76L141.948 407.164C140.702 407.745 139.219 407.205 138.638 405.959L137.234 402.948C137.189 402.85 137.151 402.75 137.119 402.649C136.926 402.453 136.761 402.223 136.638 401.959L135.234 398.948C135.189 398.85 135.151 398.75 135.119 398.649C134.926 398.453 134.761 398.223 134.638 397.959L133.725 396H121.8C114.178 396 108 389.822 108 382.2V363.8C108 356.178 114.178 350 121.8 350H140.2ZM125.4 359C120.761 359 117 362.761 117 367.4V378.6C117 383.239 120.761 387 125.4 387H136.6C141.239 387 145 383.239 145 378.6V367.4C145 362.761 141.239 359 136.6 359H125.4Z" fill="url(#paint10_linear_137_113)"/>
<path d="M182.9 351C188.202 351 192.5 354.626 192.5 359.1V369.9C192.5 373.569 189.608 376.666 185.643 377.662L188.933 383.849C188.98 383.938 189.02 384.031 189.056 384.123C189.112 384.204 189.166 384.289 189.214 384.379L192.688 390.913C193.349 392.156 192.877 393.7 191.634 394.361L188.632 395.957C187.389 396.618 185.845 396.146 185.184 394.903L181.709 388.369C181.661 388.28 181.621 388.188 181.585 388.096C181.529 388.014 181.475 387.929 181.428 387.84L176.545 378.656C176.432 378.444 176.355 378.223 176.307 378H170.1C169.728 378 169.361 377.979 169 377.944V385.45C169 385.552 168.992 385.652 168.98 385.75C168.992 385.848 169 385.948 169 386.05V393.45C169 394.858 167.858 396 166.45 396H163.05C161.642 396 160.5 394.858 160.5 393.45V386.05C160.5 385.948 160.507 385.848 160.519 385.75C160.507 385.652 160.5 385.552 160.5 385.45V370.05C160.5 370.031 160.502 370.011 160.502 369.992C160.502 369.962 160.5 369.931 160.5 369.9V359.1C160.5 354.626 164.798 351 170.1 351H182.9ZM173.5 358C171.015 358 169 360.015 169 362.5V368.5C169 370.985 171.015 373 173.5 373H179.5C181.985 373 184 370.985 184 368.5V362.5C184 360.015 181.985 358 179.5 358H173.5Z" fill="url(#paint11_linear_137_113)"/>
<defs>
<linearGradient id="paint0_linear_137_113" x1="138.28" y1="94.2801" x2="361.72" y2="317.72" gradientUnits="userSpaceOnUse">
<stop stop-color="#172E7C"/>
<stop offset="0.52" stop-color="#004E8C"/>
<stop offset="1" stop-color="#018989"/>
</linearGradient>
<linearGradient id="paint1_linear_137_113" x1="138.28" y1="94.2799" x2="361.72" y2="317.72" gradientUnits="userSpaceOnUse">
<stop stop-color="#172E7C"/>
<stop offset="0.52" stop-color="#004E8C"/>
<stop offset="1" stop-color="#018989"/>
</linearGradient>
<linearGradient id="paint2_linear_137_113" x1="138.28" y1="94.2798" x2="361.72" y2="317.72" gradientUnits="userSpaceOnUse">
<stop stop-color="#172E7C"/>
<stop offset="0.52" stop-color="#004E8C"/>
<stop offset="1" stop-color="#018989"/>
</linearGradient>
<linearGradient id="paint3_linear_137_113" x1="138.28" y1="94.2802" x2="361.72" y2="317.72" gradientUnits="userSpaceOnUse">
<stop stop-color="#172E7C"/>
<stop offset="0.52" stop-color="#004E8C"/>
<stop offset="1" stop-color="#018989"/>
</linearGradient>
<linearGradient id="paint4_linear_137_113" x1="138.28" y1="94.2801" x2="361.72" y2="317.72" gradientUnits="userSpaceOnUse">
<stop stop-color="#172E7C"/>
<stop offset="0.52" stop-color="#004E8C"/>
<stop offset="1" stop-color="#018989"/>
</linearGradient>
<linearGradient id="paint5_linear_137_113" x1="138.28" y1="94.2798" x2="361.72" y2="317.72" gradientUnits="userSpaceOnUse">
<stop stop-color="#172E7C"/>
<stop offset="0.52" stop-color="#004E8C"/>
<stop offset="1" stop-color="#018989"/>
</linearGradient>
<linearGradient id="paint6_linear_137_113" x1="138.28" y1="94.2798" x2="361.72" y2="317.72" gradientUnits="userSpaceOnUse">
<stop stop-color="#172E7C"/>
<stop offset="0.52" stop-color="#004E8C"/>
<stop offset="1" stop-color="#018989"/>
</linearGradient>
<linearGradient id="paint7_linear_137_113" x1="138.28" y1="94.2798" x2="361.72" y2="317.72" gradientUnits="userSpaceOnUse">
<stop stop-color="#172E7C"/>
<stop offset="0.52" stop-color="#004E8C"/>
<stop offset="1" stop-color="#018989"/>
</linearGradient>
<linearGradient id="paint8_linear_137_113" x1="138.28" y1="94.2798" x2="361.72" y2="317.72" gradientUnits="userSpaceOnUse">
<stop stop-color="#172E7C"/>
<stop offset="0.52" stop-color="#004E8C"/>
<stop offset="1" stop-color="#018989"/>
</linearGradient>
<linearGradient id="paint9_linear_137_113" x1="138.28" y1="94.2798" x2="361.72" y2="317.72" gradientUnits="userSpaceOnUse">
<stop stop-color="#172E7C"/>
<stop offset="0.52" stop-color="#004E8C"/>
<stop offset="1" stop-color="#018989"/>
</linearGradient>
<linearGradient id="paint10_linear_137_113" x1="108" y1="350" x2="196.5" y2="407" gradientUnits="userSpaceOnUse">
<stop stop-color="#172E7C"/>
<stop offset="0.52" stop-color="#004E8C"/>
<stop offset="1" stop-color="#018989"/>
</linearGradient>
<linearGradient id="paint11_linear_137_113" x1="109.5" y1="351" x2="183.171" y2="408.577" gradientUnits="userSpaceOnUse">
<stop stop-color="#172E7C"/>
<stop offset="0.52" stop-color="#004E8C"/>
<stop offset="1" stop-color="#018989"/>
</linearGradient>
</defs>
</svg>
